<?xml version="1.0" encoding="utf-8"?>
<!-- Generator: Adobe Illustrator 28.1.0, SVG Export Plug-In . SVG Version: 6.00 Build 0)  -->
<svg version="1.1" id="Layer_1" xmlns="http://www.w3.org/2000/svg" xmlns:xlink="http://www.w3.org/1999/xlink" x="0px" y="0px"
	 viewBox="0 0 496.9 554.2" style="enable-background:new 0 0 496.9 554.2;" xml:space="preserve">
<style type="text/css">
	.st0{opacity:0.99;fill-rule:evenodd;clip-rule:evenodd;fill:#D31F26;enable-background:new    ;}
	.st1{opacity:0.99;fill-rule:evenodd;clip-rule:evenodd;fill:#ED7C2A;enable-background:new    ;}
	.st2{opacity:0.99;fill-rule:evenodd;clip-rule:evenodd;fill:#191919;enable-background:new    ;}
	.st3{opacity:0.99;fill-rule:evenodd;clip-rule:evenodd;fill:#771214;enable-background:new    ;}
	.st4{opacity:0.99;fill-rule:evenodd;clip-rule:evenodd;fill:#F29F2B;enable-background:new    ;}
	.st5{opacity:0.99;fill-rule:evenodd;clip-rule:evenodd;fill:#1D7FBD;enable-background:new    ;}
</style>
<path class="st0" d="M229.5,0h9.3c3.4,2.3,5.9,5.4,7.4,9.3c0.5,21,0.5,42,0,63c-0.6,4.8-3.1,8.3-7.4,10.5
	c-48.3,27.6-96.9,54.8-145.7,81.6c-4.7,2.6-9.1,5.6-13.2,8.9c-24.9-14.1-50-28.1-75.2-42c2.5-3.4,5.6-6.1,9.3-8.2
	C86,82.2,157.8,41.2,229.5,0z"/>
<path class="st1" d="M210.1,241.7c-27-14.3-54.3-27.7-82.2-40.4c0.2-2.6,1.1-5,2.7-7c4.8-4,9.8-7.9,15.1-11.3
	c40.3-22.5,80.6-45.1,120.9-67.6c5.3-1.6,10.4-1.3,15.5,0.8c19.5,11.2,39.5,21.8,59.7,31.9c7.5,6.4,7.2,12.4-0.8,17.9
	c-41.2,23.1-82.2,46.4-123.2,70C214.9,237.4,212.4,239.3,210.1,241.7L210.1,241.7z"/>
<path class="st2" d="M473.7,118.9c10.2-1.5,17.2,2.4,21.3,11.7c0.9,21,1.6,42,1.9,63c-0.3,1.3-0.7,2.6-1.2,3.9
	c-2.5,2.3-5.2,4.2-8.1,5.8c-52.7,30.5-105.4,61.2-158.1,91.7c-4.8,3.3-7.8,7.9-8.9,13.6c-1,19.9-1.5,39.9-1.6,59.8
	c-1.7,6.4-5.2,11.4-10.5,15.2c-13.4,7.8-26.9,15.5-40.3,23.3c-6.1,3.2-12.3,3.4-18.6,0.8c-2.8-2.3-4.5-5.3-5-8.9
	c-0.2-47.4,0-94.8,0.8-142.2c0.7-2.7,2-5.1,3.9-7c7.7-5.4,15.6-10.4,23.6-15.2c59.5-34.7,118.8-69.4,178.3-104.2
	C458.3,125.6,465.9,121.8,473.7,118.9L473.7,118.9z"/>
<path class="st3" d="M4.7,131.4c25.2,13.8,50.3,27.8,75.2,42c-2.7,3.7-4.4,7.9-5,12.4c0.2,37.5,0.4,75.2,0.4,112.7
	c-25.1-11.2-50.2-22.6-75.2-34.2V143.8C0.9,139.4,2.4,135.3,4.7,131.4z"/>
<path class="st4" d="M128,201.3c27.8,12.7,55.2,26.1,82.2,40.4c-1.2,2.4-2.2,5-2.7,7.8c-0.9,47.2-1.4,94.3-1.6,141.5
	c-0.9,6.2-4.4,8.7-10.5,7.4c-19-10.6-37.8-21.5-56.6-32.6c-4.7-3.6-8.1-8.2-10.5-13.6c-0.9-25.5-1.3-51-1.2-76.6
	C127.2,250.8,127.4,226,128,201.3L128,201.3z"/>
<path class="st2" d="M252,554.2h-9.3v-0.8c0-29,0.2-58.1,0.8-87.1c2.6,0.2,4.9-0.5,7-1.9c52.1-30.1,104-60.4,155.8-90.9
	c6.9-5.1,10.9-12,12-20.6c0.2-23.1,0.5-46.1,0.8-69.2c1.3-7,5.1-12.3,11.2-15.9c21.1-11.4,42-23.1,62.8-35c1-0.4,2-0.5,3.1-0.4
	c0.2,56,0,111.9-0.4,167.9c-1.3,10.1-6.4,17.8-15.1,22.9c-70.6,41.5-141.4,82.7-212.4,123.6C262.9,549.8,257.5,552.2,252,554.2
	L252,554.2z"/>
<path class="st5" d="M0.1,264.3c25,11.6,50.1,23,75.2,34.2c-0.2,20.2,0,40.4,0.4,60.6c1.3,6.5,4.5,11.8,9.7,15.9
	c52.9,30.2,105.6,60.7,158.1,91.3c-0.5,29-0.8,58.1-0.8,87.1C164.1,509.5,86,464.5,8.6,418.6c-3.7-2.6-6.1-6.1-7.4-10.5
	C1,366.7,0.7,325.6,0,284.5C0.1,277.7,0.1,271,0.1,264.3L0.1,264.3z"/>
</svg>
